<svg width="38" height="38" viewBox="0 0 38 38" fill="none" xmlns="http://www.w3.org/2000/svg">
<path d="M35.8573 18.2118C34.2831 11.0949 31.9141 7.29641 28.3998 6.25883C27.6611 6.04212 26.8948 5.93387 26.125 5.93746C25.1075 5.93746 24.2213 6.18536 23.2839 6.44809C22.1543 6.765 20.8711 7.12496 19 7.12496C17.129 7.12496 15.845 6.76575 14.7131 6.44883C13.775 6.18536 12.8896 5.93746 11.875 5.93746C11.079 5.93467 10.2864 6.04257 9.52005 6.25809C6.02435 7.29121 3.65677 11.0882 2.05958 18.2073C0.342159 25.8682 1.18751 30.705 4.43013 31.8272C4.8746 31.9839 5.34228 32.0647 5.81356 32.0662C8.03493 32.0662 9.81618 30.2159 11.0334 28.7011C12.4086 26.9866 14.0184 26.1168 19 26.1168C23.4494 26.1168 25.2908 26.7202 26.8813 28.7011C27.881 29.9465 28.8258 30.8178 29.7684 31.3663C31.022 32.0951 32.2748 32.2569 33.4912 31.8391C35.4075 31.1852 36.506 29.4566 36.7568 26.7002C36.9476 24.5864 36.6537 21.8099 35.8573 18.2118ZM15.4375 17.8125H13.0625V20.1875C13.0625 20.5024 12.9374 20.8045 12.7147 21.0272C12.492 21.2499 12.19 21.375 11.875 21.375C11.5601 21.375 11.258 21.2499 11.0353 21.0272C10.8126 20.8045 10.6875 20.5024 10.6875 20.1875V17.8125H8.31251C7.99757 17.8125 7.69552 17.6874 7.47282 17.4647C7.25012 17.242 7.12501 16.9399 7.12501 16.625C7.12501 16.31 7.25012 16.008 7.47282 15.7853C7.69552 15.5626 7.99757 15.4375 8.31251 15.4375H10.6875V13.0625C10.6875 12.7475 10.8126 12.4455 11.0353 12.2228C11.258 12.0001 11.5601 11.875 11.875 11.875C12.19 11.875 12.492 12.0001 12.7147 12.2228C12.9374 12.4455 13.0625 12.7475 13.0625 13.0625V15.4375H15.4375C15.7525 15.4375 16.0545 15.5626 16.2772 15.7853C16.4999 16.008 16.625 16.31 16.625 16.625C16.625 16.9399 16.4999 17.242 16.2772 17.4647C16.0545 17.6874 15.7525 17.8125 15.4375 17.8125ZM21.6719 18.1093C21.3783 18.1093 21.0913 18.0223 20.8472 17.8592C20.6031 17.6961 20.4128 17.4642 20.3005 17.193C20.1882 16.9218 20.1588 16.6233 20.216 16.3354C20.2733 16.0474 20.4147 15.7829 20.6223 15.5754C20.8299 15.3678 21.0944 15.2264 21.3823 15.1691C21.6702 15.1118 21.9687 15.1412 22.2399 15.2536C22.5112 15.3659 22.743 15.5562 22.9061 15.8003C23.0692 16.0444 23.1563 16.3314 23.1563 16.625C23.1563 17.0186 22.9999 17.3962 22.7215 17.6746C22.4431 17.953 22.0656 18.1093 21.6719 18.1093ZM24.9375 21.375C24.6438 21.375 24.3566 21.2878 24.1124 21.1245C23.8683 20.9613 23.678 20.7292 23.5658 20.4578C23.4535 20.1863 23.4244 19.8877 23.4819 19.5996C23.5395 19.3116 23.6813 19.0471 23.8892 18.8397C24.0972 18.6322 24.362 18.4911 24.6502 18.4343C24.9384 18.3774 25.237 18.4074 25.5081 18.5203C25.7793 18.6332 26.0109 18.824 26.1735 19.0686C26.3362 19.3132 26.4226 19.6006 26.4219 19.8943C26.4209 20.2873 26.2641 20.6639 25.9858 20.9415C25.7075 21.2191 25.3305 21.375 24.9375 21.375ZM24.9375 14.8437C24.6439 14.8437 24.3569 14.7567 24.1128 14.5936C23.8687 14.4304 23.6785 14.1986 23.5661 13.9274C23.4538 13.6562 23.4244 13.3577 23.4817 13.0698C23.5389 12.7818 23.6803 12.5173 23.8879 12.3097C24.0955 12.1021 24.36 11.9608 24.6479 11.9035C24.9359 11.8462 25.2343 11.8756 25.5056 11.988C25.7768 12.1003 26.0086 12.2906 26.1717 12.5347C26.3348 12.7788 26.4219 13.0658 26.4219 13.3593C26.4219 13.753 26.2655 14.1306 25.9871 14.409C25.7087 14.6873 25.3312 14.8437 24.9375 14.8437ZM28.2031 18.1093C27.9096 18.1093 27.6226 18.0223 27.3785 17.8592C27.1344 17.6961 26.9441 17.4642 26.8318 17.193C26.7194 16.9218 26.69 16.6233 26.7473 16.3354C26.8046 16.0474 26.9459 15.7829 27.1535 15.5754C27.3611 15.3678 27.6256 15.2264 27.9135 15.1691C28.2015 15.1118 28.4999 15.1412 28.7712 15.2536C29.0424 15.3659 29.2742 15.5562 29.4373 15.8003C29.6005 16.0444 29.6875 16.3314 29.6875 16.625C29.6875 17.0186 29.5311 17.3962 29.2527 17.6746C28.9744 17.953 28.5968 18.1093 28.2031 18.1093Z" fill="black"/>
</svg>
