<svg width="105" height="35" viewBox="0 0 105 35" fill="none" xmlns="http://www.w3.org/2000/svg">
<rect width="105" height="35" rx="17.5" fill="black"/>
<path d="M53.936 17.06C53.72 16.644 53.42 16.332 53.036 16.124C52.652 15.908 52.208 15.8 51.704 15.8C51.152 15.8 50.66 15.924 50.228 16.172C49.796 16.42 49.456 16.772 49.208 17.228C48.968 17.684 48.848 18.212 48.848 18.812C48.848 19.412 48.968 19.944 49.208 20.408C49.456 20.864 49.796 21.216 50.228 21.464C50.66 21.712 51.152 21.836 51.704 21.836C52.448 21.836 53.052 21.628 53.516 21.212C53.98 20.796 54.264 20.232 54.368 19.52H51.236V18.428H55.832V19.496C55.744 20.144 55.512 20.74 55.136 21.284C54.768 21.828 54.284 22.264 53.684 22.592C53.092 22.912 52.432 23.072 51.704 23.072C50.92 23.072 50.204 22.892 49.556 22.532C48.908 22.164 48.392 21.656 48.008 21.008C47.632 20.36 47.444 19.628 47.444 18.812C47.444 17.996 47.632 17.264 48.008 16.616C48.392 15.968 48.908 15.464 49.556 15.104C50.212 14.736 50.928 14.552 51.704 14.552C52.592 14.552 53.38 14.772 54.068 15.212C54.764 15.644 55.268 16.26 55.58 17.06H53.936ZM56.7253 19.664C56.7253 19 56.8613 18.412 57.1333 17.9C57.4133 17.388 57.7893 16.992 58.2613 16.712C58.7413 16.424 59.2693 16.28 59.8453 16.28C60.3653 16.28 60.8173 16.384 61.2013 16.592C61.5933 16.792 61.9053 17.044 62.1373 17.348V16.388H63.5173V23H62.1373V22.016C61.9053 22.328 61.5893 22.588 61.1893 22.796C60.7893 23.004 60.3333 23.108 59.8213 23.108C59.2533 23.108 58.7333 22.964 58.2613 22.676C57.7893 22.38 57.4133 21.972 57.1333 21.452C56.8613 20.924 56.7253 20.328 56.7253 19.664ZM62.1373 19.688C62.1373 19.232 62.0413 18.836 61.8493 18.5C61.6653 18.164 61.4213 17.908 61.1173 17.732C60.8133 17.556 60.4853 17.468 60.1333 17.468C59.7813 17.468 59.4533 17.556 59.1493 17.732C58.8453 17.9 58.5973 18.152 58.4053 18.488C58.2213 18.816 58.1293 19.208 58.1293 19.664C58.1293 20.12 58.2213 20.52 58.4053 20.864C58.5973 21.208 58.8453 21.472 59.1493 21.656C59.4613 21.832 59.7893 21.92 60.1333 21.92C60.4853 21.92 60.8133 21.832 61.1173 21.656C61.4213 21.48 61.6653 21.224 61.8493 20.888C62.0413 20.544 62.1373 20.144 62.1373 19.688ZM73.3181 16.28C73.8381 16.28 74.3021 16.388 74.7101 16.604C75.1261 16.82 75.4501 17.14 75.6821 17.564C75.9221 17.988 76.0421 18.5 76.0421 19.1V23H74.6861V19.304C74.6861 18.712 74.5381 18.26 74.2421 17.948C73.9461 17.628 73.5421 17.468 73.0301 17.468C72.5181 17.468 72.1101 17.628 71.8061 17.948C71.5101 18.26 71.3621 18.712 71.3621 19.304V23H70.0061V19.304C70.0061 18.712 69.8581 18.26 69.5621 17.948C69.2661 17.628 68.8621 17.468 68.3501 17.468C67.8381 17.468 67.4301 17.628 67.1261 17.948C66.8301 18.26 66.6821 18.712 66.6821 19.304V23H65.3141V16.388H66.6821V17.144C66.9061 16.872 67.1901 16.66 67.5341 16.508C67.8781 16.356 68.2461 16.28 68.6381 16.28C69.1661 16.28 69.6381 16.392 70.0541 16.616C70.4701 16.84 70.7901 17.164 71.0141 17.588C71.2141 17.188 71.5261 16.872 71.9501 16.64C72.3741 16.4 72.8301 16.28 73.3181 16.28ZM83.8428 19.532C83.8428 19.78 83.8268 20.004 83.7948 20.204H78.7428C78.7828 20.732 78.9788 21.156 79.3308 21.476C79.6828 21.796 80.1148 21.956 80.6268 21.956C81.3628 21.956 81.8828 21.648 82.1868 21.032H83.6628C83.4628 21.64 83.0988 22.14 82.5708 22.532C82.0508 22.916 81.4028 23.108 80.6268 23.108C79.9948 23.108 79.4268 22.968 78.9228 22.688C78.4268 22.4 78.0348 22 77.7468 21.488C77.4668 20.968 77.3268 20.368 77.3268 19.688C77.3268 19.008 77.4628 18.412 77.7348 17.9C78.0148 17.38 78.4028 16.98 78.8988 16.7C79.4028 16.42 79.9788 16.28 80.6268 16.28C81.2508 16.28 81.8068 16.416 82.2948 16.688C82.7828 16.96 83.1628 17.344 83.4348 17.84C83.7068 18.328 83.8428 18.892 83.8428 19.532ZM82.4148 19.1C82.4068 18.596 82.2268 18.192 81.8748 17.888C81.5228 17.584 81.0868 17.432 80.5668 17.432C80.0948 17.432 79.6908 17.584 79.3548 17.888C79.0188 18.184 78.8188 18.588 78.7548 19.1H82.4148ZM87.5891 23.108C87.0691 23.108 86.6011 23.016 86.1851 22.832C85.7771 22.64 85.4531 22.384 85.2131 22.064C84.9731 21.736 84.8451 21.372 84.8291 20.972H86.2451C86.2691 21.252 86.4011 21.488 86.6411 21.68C86.8891 21.864 87.1971 21.956 87.5651 21.956C87.9491 21.956 88.2451 21.884 88.4531 21.74C88.6691 21.588 88.7771 21.396 88.7771 21.164C88.7771 20.916 88.6571 20.732 88.4171 20.612C88.1851 20.492 87.8131 20.36 87.3011 20.216C86.8051 20.08 86.4011 19.948 86.0891 19.82C85.7771 19.692 85.5051 19.496 85.2731 19.232C85.0491 18.968 84.9371 18.62 84.9371 18.188C84.9371 17.836 85.0411 17.516 85.2491 17.228C85.4571 16.932 85.7531 16.7 86.1371 16.532C86.5291 16.364 86.9771 16.28 87.4811 16.28C88.2331 16.28 88.8371 16.472 89.2931 16.856C89.7571 17.232 90.0051 17.748 90.0371 18.404H88.6691C88.6451 18.108 88.5251 17.872 88.3091 17.696C88.0931 17.52 87.8011 17.432 87.4331 17.432C87.0731 17.432 86.7971 17.5 86.6051 17.636C86.4131 17.772 86.3171 17.952 86.3171 18.176C86.3171 18.352 86.3811 18.5 86.5091 18.62C86.6371 18.74 86.7931 18.836 86.9771 18.908C87.1611 18.972 87.4331 19.056 87.7931 19.16C88.2731 19.288 88.6651 19.42 88.9691 19.556C89.2811 19.684 89.5491 19.876 89.7731 20.132C89.9971 20.388 90.1131 20.728 90.1211 21.152C90.1211 21.528 90.0171 21.864 89.8091 22.16C89.6011 22.456 89.3051 22.688 88.9211 22.856C88.5451 23.024 88.1011 23.108 87.5891 23.108Z" fill="#FFC3DD"/>
<path d="M40.6467 17.5022C39.6525 13.0073 38.1563 10.6083 35.9367 9.95296C35.4702 9.81609 34.9862 9.74772 34.5 9.74999C33.8573 9.74999 33.2977 9.90656 32.7056 10.0725C31.9922 10.2727 31.1817 10.5 30 10.5C28.8183 10.5 28.0073 10.2731 27.2925 10.073C26.7 9.90656 26.1408 9.74999 25.5 9.74999C24.9972 9.74823 24.4967 9.81638 24.0127 9.95249C21.8048 10.605 20.3095 13.0031 19.3008 17.4994C18.2161 22.3378 18.75 25.3926 20.798 26.1014C21.0787 26.2004 21.3741 26.2514 21.6717 26.2523C23.0747 26.2523 24.1997 25.0837 24.9684 24.127C25.837 23.0442 26.8538 22.4948 30 22.4948C32.8102 22.4948 33.9731 22.8759 34.9777 24.127C35.6091 24.9136 36.2058 25.4639 36.8011 25.8103C37.5928 26.2706 38.3841 26.3728 39.1523 26.1089C40.3627 25.6959 41.0564 24.6042 41.2148 22.8633C41.3353 21.5283 41.1497 19.7747 40.6467 17.5022ZM27.75 17.25H26.25V18.75C26.25 18.9489 26.171 19.1397 26.0303 19.2803C25.8897 19.421 25.6989 19.5 25.5 19.5C25.3011 19.5 25.1103 19.421 24.9697 19.2803C24.829 19.1397 24.75 18.9489 24.75 18.75V17.25H23.25C23.0511 17.25 22.8603 17.171 22.7197 17.0303C22.579 16.8897 22.5 16.6989 22.5 16.5C22.5 16.3011 22.579 16.1103 22.7197 15.9697C22.8603 15.829 23.0511 15.75 23.25 15.75H24.75V14.25C24.75 14.0511 24.829 13.8603 24.9697 13.7197C25.1103 13.579 25.3011 13.5 25.5 13.5C25.6989 13.5 25.8897 13.579 26.0303 13.7197C26.171 13.8603 26.25 14.0511 26.25 14.25V15.75H27.75C27.9489 15.75 28.1397 15.829 28.2803 15.9697C28.421 16.1103 28.5 16.3011 28.5 16.5C28.5 16.6989 28.421 16.8897 28.2803 17.0303C28.1397 17.171 27.9489 17.25 27.75 17.25ZM31.6875 17.4375C31.5021 17.4375 31.3208 17.3825 31.1667 17.2795C31.0125 17.1765 30.8923 17.0301 30.8214 16.8588C30.7504 16.6875 30.7318 16.499 30.768 16.3171C30.8042 16.1352 30.8935 15.9682 31.0246 15.8371C31.1557 15.706 31.3228 15.6167 31.5046 15.5805C31.6865 15.5443 31.875 15.5629 32.0463 15.6339C32.2176 15.7048 32.364 15.825 32.467 15.9791C32.57 16.1333 32.625 16.3146 32.625 16.5C32.625 16.7486 32.5262 16.9871 32.3504 17.1629C32.1746 17.3387 31.9361 17.4375 31.6875 17.4375ZM33.75 19.5C33.5645 19.5 33.3831 19.445 33.2289 19.3418C33.0747 19.2387 32.9545 19.0922 32.8836 18.9207C32.8128 18.7493 32.7943 18.5607 32.8307 18.3787C32.8671 18.1968 32.9566 18.0298 33.0879 17.8988C33.2193 17.7677 33.3865 17.6786 33.5685 17.6427C33.7506 17.6068 33.9391 17.6257 34.1104 17.697C34.2817 17.7683 34.4279 17.8889 34.5306 18.0434C34.6334 18.1978 34.688 18.3793 34.6875 18.5648C34.6869 18.8131 34.5878 19.0509 34.4121 19.2262C34.2363 19.4015 33.9982 19.5 33.75 19.5ZM33.75 15.375C33.5646 15.375 33.3833 15.32 33.2292 15.217C33.075 15.114 32.9548 14.9676 32.8839 14.7963C32.8129 14.625 32.7943 14.4365 32.8305 14.2546C32.8667 14.0727 32.956 13.9057 33.0871 13.7746C33.2182 13.6435 33.3853 13.5542 33.5671 13.518C33.749 13.4818 33.9375 13.5004 34.1088 13.5714C34.2801 13.6423 34.4265 13.7625 34.5295 13.9166C34.6325 14.0708 34.6875 14.2521 34.6875 14.4375C34.6875 14.6861 34.5887 14.9246 34.4129 15.1004C34.2371 15.2762 33.9986 15.375 33.75 15.375ZM35.8125 17.4375C35.6271 17.4375 35.4458 17.3825 35.2917 17.2795C35.1375 17.1765 35.0173 17.0301 34.9464 16.8588C34.8754 16.6875 34.8568 16.499 34.893 16.3171C34.9292 16.1352 35.0185 15.9682 35.1496 15.8371C35.2807 15.706 35.4478 15.6167 35.6296 15.5805C35.8115 15.5443 36 15.5629 36.1713 15.6339C36.3426 15.7048 36.489 15.825 36.592 15.9791C36.695 16.1333 36.75 16.3146 36.75 16.5C36.75 16.7486 36.6512 16.9871 36.4754 17.1629C36.2996 17.3387 36.0611 17.4375 35.8125 17.4375Z" fill="#FFC3DD"/>
</svg>
