<svg width="43" height="43" viewBox="0 0 43 43" fill="none" xmlns="http://www.w3.org/2000/svg">
<path d="M40.5754 20.6081C38.7941 12.5548 36.1133 8.25651 32.1366 7.08241C31.3007 6.83718 30.4336 6.71468 29.5625 6.71876C28.4111 6.71876 27.4083 6.99926 26.3476 7.29657C25.0693 7.65518 23.6173 8.06251 21.5 8.06251C19.3828 8.06251 17.9298 7.65602 16.6491 7.29741C15.5875 6.99926 14.5856 6.71876 13.4375 6.71876C12.5367 6.71559 11.6398 6.8377 10.7727 7.08157C6.81702 8.25063 4.13792 12.5473 2.33058 20.6031C0.387178 29.2719 1.34376 34.7452 5.01304 36.015C5.516 36.1923 6.04521 36.2838 6.57851 36.2855C9.09216 36.2855 11.1078 34.1917 12.4851 32.4776C14.0414 30.5376 15.863 29.5533 21.5 29.5533C26.5349 29.5533 28.6185 30.2361 30.4183 32.4776C31.5496 33.8869 32.6187 34.8728 33.6853 35.4935C35.1038 36.3182 36.5215 36.5013 37.898 36.0285C40.0664 35.2886 41.3094 33.3326 41.5933 30.2134C41.8091 27.8215 41.4765 24.6797 40.5754 20.6081ZM17.4688 20.1563H14.7813V22.8438C14.7813 23.2001 14.6397 23.5419 14.3877 23.7939C14.1357 24.0459 13.7939 24.1875 13.4375 24.1875C13.0811 24.1875 12.7393 24.0459 12.4873 23.7939C12.2353 23.5419 12.0938 23.2001 12.0938 22.8438V20.1563H9.40626C9.04988 20.1563 8.70809 20.0147 8.45609 19.7627C8.20408 19.5107 8.06251 19.1689 8.06251 18.8125C8.06251 18.4561 8.20408 18.1143 8.45609 17.8623C8.70809 17.6103 9.04988 17.4688 9.40626 17.4688H12.0938V14.7813C12.0938 14.4249 12.2353 14.0831 12.4873 13.8311C12.7393 13.5791 13.0811 13.4375 13.4375 13.4375C13.7939 13.4375 14.1357 13.5791 14.3877 13.8311C14.6397 14.0831 14.7813 14.4249 14.7813 14.7813V17.4688H17.4688C17.8251 17.4688 18.1669 17.6103 18.4189 17.8623C18.6709 18.1143 18.8125 18.4561 18.8125 18.8125C18.8125 19.1689 18.6709 19.5107 18.4189 19.7627C18.1669 20.0147 17.8251 20.1563 17.4688 20.1563ZM24.5234 20.4922C24.1912 20.4922 23.8665 20.3937 23.5903 20.2091C23.314 20.0246 23.0987 19.7622 22.9716 19.4553C22.8445 19.1484 22.8112 18.8106 22.876 18.4848C22.9408 18.159 23.1008 17.8597 23.3357 17.6248C23.5706 17.3899 23.8699 17.2299 24.1958 17.1651C24.5216 17.1003 24.8593 17.1335 25.1662 17.2607C25.4732 17.3878 25.7355 17.6031 25.9201 17.8793C26.1046 18.1555 26.2031 18.4803 26.2031 18.8125C26.2031 19.258 26.0262 19.6852 25.7112 20.0002C25.3962 20.3152 24.9689 20.4922 24.5234 20.4922ZM28.2188 24.1875C27.8864 24.1875 27.5615 24.0889 27.2851 23.9041C27.0088 23.7194 26.7935 23.4568 26.6665 23.1496C26.5395 22.8425 26.5065 22.5045 26.5717 22.1786C26.6368 21.8526 26.7972 21.5534 27.0325 21.3186C27.2679 21.0839 27.5675 20.9242 27.8937 20.8599C28.2198 20.7956 28.5576 20.8294 28.8645 20.9572C29.1713 21.085 29.4334 21.3009 29.6174 21.5777C29.8015 21.8545 29.8993 22.1796 29.8984 22.512C29.8973 22.9568 29.7199 23.3829 29.405 23.697C29.0901 24.0111 28.6635 24.1875 28.2188 24.1875ZM28.2188 16.7969C27.8865 16.7969 27.5618 16.6984 27.2856 16.5138C27.0094 16.3292 26.7941 16.0669 26.6669 15.76C26.5398 15.4531 26.5065 15.1153 26.5713 14.7895C26.6362 14.4637 26.7961 14.1644 27.031 13.9295C27.2659 13.6946 27.5652 13.5346 27.8911 13.4698C28.2169 13.405 28.5546 13.4382 28.8615 13.5654C29.1685 13.6925 29.4308 13.9078 29.6154 14.184C29.7999 14.4602 29.8984 14.785 29.8984 15.1172C29.8984 15.5627 29.7215 15.9899 29.4065 16.3049C29.0915 16.6199 28.6642 16.7969 28.2188 16.7969ZM31.9141 20.4922C31.5819 20.4922 31.2571 20.3937 30.9809 20.2091C30.7047 20.0246 30.4894 19.7622 30.3622 19.4553C30.2351 19.1484 30.2019 18.8106 30.2667 18.4848C30.3315 18.159 30.4914 17.8597 30.7264 17.6248C30.9613 17.3899 31.2606 17.2299 31.5864 17.1651C31.9122 17.1003 32.2499 17.1335 32.5569 17.2607C32.8638 17.3878 33.1261 17.6031 33.3107 17.8793C33.4953 18.1555 33.5938 18.4803 33.5938 18.8125C33.5938 19.258 33.4168 19.6852 33.1018 20.0002C32.7868 20.3152 32.3596 20.4922 31.9141 20.4922Z" fill="#FFC3DD"/>
</svg>
