<svg width="105" height="35" viewBox="0 0 105 35" fill="none" xmlns="http://www.w3.org/2000/svg">
<rect width="105" height="35" rx="17.5" fill="black"/>
<path d="M49.808 14.66V15.776H46.268V18.236H49.028V19.352H46.268V23H44.9V14.66H49.808ZM50.6198 19.664C50.6198 19 50.7558 18.412 51.0278 17.9C51.3078 17.388 51.6838 16.992 52.1558 16.712C52.6358 16.424 53.1638 16.28 53.7398 16.28C54.2598 16.28 54.7118 16.384 55.0958 16.592C55.4878 16.792 55.7998 17.044 56.0318 17.348V16.388H57.4118V23H56.0318V22.016C55.7998 22.328 55.4838 22.588 55.0838 22.796C54.6838 23.004 54.2278 23.108 53.7158 23.108C53.1478 23.108 52.6278 22.964 52.1558 22.676C51.6838 22.38 51.3078 21.972 51.0278 21.452C50.7558 20.924 50.6198 20.328 50.6198 19.664ZM56.0318 19.688C56.0318 19.232 55.9358 18.836 55.7438 18.5C55.5598 18.164 55.3158 17.908 55.0118 17.732C54.7078 17.556 54.3798 17.468 54.0278 17.468C53.6758 17.468 53.3478 17.556 53.0438 17.732C52.7398 17.9 52.4918 18.152 52.2998 18.488C52.1158 18.816 52.0238 19.208 52.0238 19.664C52.0238 20.12 52.1158 20.52 52.2998 20.864C52.4918 21.208 52.7398 21.472 53.0438 21.656C53.3558 21.832 53.6838 21.92 54.0278 21.92C54.3798 21.92 54.7078 21.832 55.0118 21.656C55.3158 21.48 55.5598 21.224 55.7438 20.888C55.9358 20.544 56.0318 20.144 56.0318 19.688ZM61.7646 21.776L63.6366 16.388H65.0886L62.5686 23H60.9366L58.4286 16.388H59.8926L61.7646 21.776ZM68.9907 23.108C68.3667 23.108 67.8027 22.968 67.2987 22.688C66.7947 22.4 66.3987 22 66.1107 21.488C65.8227 20.968 65.6787 20.368 65.6787 19.688C65.6787 19.016 65.8267 18.42 66.1227 17.9C66.4187 17.38 66.8227 16.98 67.3347 16.7C67.8467 16.42 68.4187 16.28 69.0507 16.28C69.6827 16.28 70.2547 16.42 70.7667 16.7C71.2787 16.98 71.6827 17.38 71.9787 17.9C72.2747 18.42 72.4227 19.016 72.4227 19.688C72.4227 20.36 72.2707 20.956 71.9667 21.476C71.6627 21.996 71.2467 22.4 70.7187 22.688C70.1987 22.968 69.6227 23.108 68.9907 23.108ZM68.9907 21.92C69.3427 21.92 69.6707 21.836 69.9747 21.668C70.2867 21.5 70.5387 21.248 70.7307 20.912C70.9227 20.576 71.0187 20.168 71.0187 19.688C71.0187 19.208 70.9267 18.804 70.7427 18.476C70.5587 18.14 70.3147 17.888 70.0107 17.72C69.7067 17.552 69.3787 17.468 69.0267 17.468C68.6747 17.468 68.3467 17.552 68.0427 17.72C67.7467 17.888 67.5107 18.14 67.3347 18.476C67.1587 18.804 67.0707 19.208 67.0707 19.688C67.0707 20.4 67.2507 20.952 67.6107 21.344C67.9787 21.728 68.4387 21.92 68.9907 21.92ZM75.143 17.348C75.343 17.012 75.607 16.752 75.935 16.568C76.271 16.376 76.667 16.28 77.123 16.28V17.696H76.775C76.239 17.696 75.831 17.832 75.551 18.104C75.279 18.376 75.143 18.848 75.143 19.52V23H73.775V16.388H75.143V17.348ZM79.0765 15.512C78.8285 15.512 78.6205 15.428 78.4525 15.26C78.2845 15.092 78.2005 14.884 78.2005 14.636C78.2005 14.388 78.2845 14.18 78.4525 14.012C78.6205 13.844 78.8285 13.76 79.0765 13.76C79.3165 13.76 79.5205 13.844 79.6885 14.012C79.8565 14.18 79.9405 14.388 79.9405 14.636C79.9405 14.884 79.8565 15.092 79.6885 15.26C79.5205 15.428 79.3165 15.512 79.0765 15.512ZM79.7485 16.388V23H78.3805V16.388H79.7485ZM83.1405 17.504V21.164C83.1405 21.412 83.1965 21.592 83.3085 21.704C83.4285 21.808 83.6285 21.86 83.9085 21.86H84.7485V23H83.6685C83.0525 23 82.5805 22.856 82.2525 22.568C81.9245 22.28 81.7605 21.812 81.7605 21.164V17.504H80.9805V16.388H81.7605V14.744H83.1405V16.388H84.7485V17.504H83.1405ZM92.0694 19.532C92.0694 19.78 92.0534 20.004 92.0214 20.204H86.9694C87.0094 20.732 87.2054 21.156 87.5574 21.476C87.9094 21.796 88.3414 21.956 88.8534 21.956C89.5894 21.956 90.1094 21.648 90.4134 21.032H91.8894C91.6894 21.64 91.3254 22.14 90.7974 22.532C90.2774 22.916 89.6294 23.108 88.8534 23.108C88.2214 23.108 87.6534 22.968 87.1494 22.688C86.6534 22.4 86.2614 22 85.9734 21.488C85.6934 20.968 85.5534 20.368 85.5534 19.688C85.5534 19.008 85.6894 18.412 85.9614 17.9C86.2414 17.38 86.6294 16.98 87.1254 16.7C87.6294 16.42 88.2054 16.28 88.8534 16.28C89.4774 16.28 90.0334 16.416 90.5214 16.688C91.0094 16.96 91.3894 17.344 91.6614 17.84C91.9334 18.328 92.0694 18.892 92.0694 19.532ZM90.6414 19.1C90.6334 18.596 90.4534 18.192 90.1014 17.888C89.7494 17.584 89.3134 17.432 88.7934 17.432C88.3214 17.432 87.9174 17.584 87.5814 17.888C87.2454 18.184 87.0454 18.588 86.9814 19.1H90.6414Z" fill="#FFC3DD"/>
<path d="M30 28.35L28.55 27.03C23.4 22.36 20 19.27 20 15.5C20 12.41 22.42 10 25.5 10C27.24 10 28.91 10.81 30 12.08C31.09 10.81 32.76 10 34.5 10C37.58 10 40 12.41 40 15.5C40 19.27 36.6 22.36 31.45 27.03L30 28.35Z" fill="#FFC3DD"/>
</svg>
