<svg width="93" height="28" viewBox="0 0 93 28" fill="none" xmlns="http://www.w3.org/2000/svg">
<rect width="93" height="28" rx="14" fill="white"/>
<path d="M39.516 12.084C39.516 12.78 39.276 13.36 38.796 13.824C38.324 14.28 37.6 14.508 36.624 14.508H35.016V18H33.924V9.636H36.624C37.568 9.636 38.284 9.864 38.772 10.32C39.268 10.776 39.516 11.364 39.516 12.084ZM36.624 13.608C37.232 13.608 37.68 13.476 37.968 13.212C38.256 12.948 38.4 12.572 38.4 12.084C38.4 11.052 37.808 10.536 36.624 10.536H35.016V13.608H36.624ZM41.9652 9.12V18H40.8732V9.12H41.9652ZM43.4183 14.688C43.4183 14.016 43.5543 13.428 43.8263 12.924C44.0983 12.412 44.4703 12.016 44.9423 11.736C45.4223 11.456 45.9543 11.316 46.5383 11.316C47.1143 11.316 47.6143 11.44 48.0383 11.688C48.4623 11.936 48.7783 12.248 48.9863 12.624V11.424H50.0903V18H48.9863V16.776C48.7703 17.16 48.4463 17.48 48.0143 17.736C47.5903 17.984 47.0943 18.108 46.5263 18.108C45.9423 18.108 45.4143 17.964 44.9423 17.676C44.4703 17.388 44.0983 16.984 43.8263 16.464C43.5543 15.944 43.4183 15.352 43.4183 14.688ZM48.9863 14.7C48.9863 14.204 48.8863 13.772 48.6863 13.404C48.4863 13.036 48.2143 12.756 47.8703 12.564C47.5343 12.364 47.1623 12.264 46.7543 12.264C46.3463 12.264 45.9743 12.36 45.6383 12.552C45.3023 12.744 45.0343 13.024 44.8343 13.392C44.6343 13.76 44.5343 14.192 44.5343 14.688C44.5343 15.192 44.6343 15.632 44.8343 16.008C45.0343 16.376 45.3023 16.66 45.6383 16.86C45.9743 17.052 46.3463 17.148 46.7543 17.148C47.1623 17.148 47.5343 17.052 47.8703 16.86C48.2143 16.66 48.4863 16.376 48.6863 16.008C48.8863 15.632 48.9863 15.196 48.9863 14.7ZM53.2677 12.324V16.2C53.2677 16.52 53.3357 16.748 53.4717 16.884C53.6077 17.012 53.8437 17.076 54.1797 17.076H54.9837V18H53.9997C53.3917 18 52.9357 17.86 52.6317 17.58C52.3277 17.3 52.1757 16.84 52.1757 16.2V12.324H51.3237V11.424H52.1757V9.768H53.2677V11.424H54.9837V12.324H53.2677ZM58.9828 12.324H57.6028V18H56.5108V12.324H55.6588V11.424H56.5108V10.956C56.5108 10.22 56.6988 9.684 57.0748 9.348C57.4588 9.004 58.0708 8.832 58.9108 8.832V9.744C58.4308 9.744 58.0908 9.84 57.8908 10.032C57.6988 10.216 57.6028 10.524 57.6028 10.956V11.424H58.9828V12.324ZM63.124 18.108C62.508 18.108 61.948 17.968 61.444 17.688C60.948 17.408 60.556 17.012 60.268 16.5C59.988 15.98 59.848 15.38 59.848 14.7C59.848 14.028 59.992 13.436 60.28 12.924C60.576 12.404 60.976 12.008 61.48 11.736C61.984 11.456 62.548 11.316 63.172 11.316C63.796 11.316 64.36 11.456 64.864 11.736C65.368 12.008 65.764 12.4 66.052 12.912C66.348 13.424 66.496 14.02 66.496 14.7C66.496 15.38 66.344 15.98 66.04 16.5C65.744 17.012 65.34 17.408 64.828 17.688C64.316 17.968 63.748 18.108 63.124 18.108ZM63.124 17.148C63.516 17.148 63.884 17.056 64.228 16.872C64.572 16.688 64.848 16.412 65.056 16.044C65.272 15.676 65.38 15.228 65.38 14.7C65.38 14.172 65.276 13.724 65.068 13.356C64.86 12.988 64.588 12.716 64.252 12.54C63.916 12.356 63.552 12.264 63.16 12.264C62.76 12.264 62.392 12.356 62.056 12.54C61.728 12.716 61.464 12.988 61.264 13.356C61.064 13.724 60.964 14.172 60.964 14.7C60.964 15.236 61.06 15.688 61.252 16.056C61.452 16.424 61.716 16.7 62.044 16.884C62.372 17.06 62.732 17.148 63.124 17.148ZM69.0238 12.492C69.2158 12.116 69.4878 11.824 69.8398 11.616C70.1998 11.408 70.6358 11.304 71.1478 11.304V12.432H70.8598C69.6358 12.432 69.0238 13.096 69.0238 14.424V18H67.9318V11.424H69.0238V12.492ZM80.3164 11.304C80.8284 11.304 81.2844 11.412 81.6844 11.628C82.0844 11.836 82.4004 12.152 82.6324 12.576C82.8644 13 82.9804 13.516 82.9804 14.124V18H81.9004V14.28C81.9004 13.624 81.7364 13.124 81.4084 12.78C81.0884 12.428 80.6524 12.252 80.1004 12.252C79.5324 12.252 79.0804 12.436 78.7444 12.804C78.4084 13.164 78.2404 13.688 78.2404 14.376V18H77.1604V14.28C77.1604 13.624 76.9964 13.124 76.6684 12.78C76.3484 12.428 75.9124 12.252 75.3604 12.252C74.7924 12.252 74.3404 12.436 74.0044 12.804C73.6684 13.164 73.5004 13.688 73.5004 14.376V18H72.4084V11.424H73.5004V12.372C73.7164 12.028 74.0044 11.764 74.3644 11.58C74.7324 11.396 75.1364 11.304 75.5764 11.304C76.1284 11.304 76.6164 11.428 77.0404 11.676C77.4644 11.924 77.7804 12.288 77.9884 12.768C78.1724 12.304 78.4764 11.944 78.9004 11.688C79.3244 11.432 79.7964 11.304 80.3164 11.304Z" fill="black"/>
<circle cx="14" cy="14" r="14" fill="#FFC3DD"/>
<path d="M15.5 20.75H17M15.5 20.75C15.2016 20.75 14.9155 20.6315 14.7045 20.4205C14.4935 20.2095 14.375 19.9234 14.375 19.625V17.75H14M15.5 20.75H12.5M14 17.75H13.625V19.625C13.625 19.9234 13.5065 20.2095 13.2955 20.4205C13.0845 20.6315 12.7984 20.75 12.5 20.75M14 17.75V20.75M12.5 20.75H11M17 7.25H11C8.879 7.25 7.81775 7.25 7.15925 7.90925C6.5 8.56775 6.5 9.629 6.5 11.75V13.25C6.5 15.371 6.5 16.4323 7.15925 17.0908C7.81775 17.75 8.879 17.75 11 17.75H17C19.121 17.75 20.1823 17.75 20.8408 17.0908C21.5 16.4323 21.5 15.371 21.5 13.25V11.75C21.5 9.629 21.5 8.56775 20.8408 7.90925C20.1823 7.25 19.121 7.25 17 7.25Z" stroke="black" stroke-width="1.5" stroke-linecap="round" stroke-linejoin="round"/>
</svg>
