<svg width="81" height="28" viewBox="0 0 81 28" fill="none" xmlns="http://www.w3.org/2000/svg">
<rect width="81" height="28" rx="14" fill="white"/>
<path d="M38.328 18L36.336 14.58H35.016V18H33.924V9.636H36.624C37.256 9.636 37.788 9.744 38.22 9.96C38.66 10.176 38.988 10.468 39.204 10.836C39.42 11.204 39.528 11.624 39.528 12.096C39.528 12.672 39.36 13.18 39.024 13.62C38.696 14.06 38.2 14.352 37.536 14.496L39.636 18H38.328ZM35.016 13.704H36.624C37.216 13.704 37.66 13.56 37.956 13.272C38.252 12.976 38.4 12.584 38.4 12.096C38.4 11.6 38.252 11.216 37.956 10.944C37.668 10.672 37.224 10.536 36.624 10.536H35.016V13.704ZM40.8168 14.688C40.8168 14.016 40.9528 13.428 41.2248 12.924C41.4968 12.412 41.8688 12.016 42.3408 11.736C42.8208 11.456 43.3528 11.316 43.9368 11.316C44.5128 11.316 45.0128 11.44 45.4368 11.688C45.8608 11.936 46.1768 12.248 46.3848 12.624V11.424H47.4888V18H46.3848V16.776C46.1688 17.16 45.8448 17.48 45.4128 17.736C44.9888 17.984 44.4928 18.108 43.9248 18.108C43.3408 18.108 42.8128 17.964 42.3408 17.676C41.8688 17.388 41.4968 16.984 41.2248 16.464C40.9528 15.944 40.8168 15.352 40.8168 14.688ZM46.3848 14.7C46.3848 14.204 46.2848 13.772 46.0848 13.404C45.8848 13.036 45.6128 12.756 45.2688 12.564C44.9328 12.364 44.5608 12.264 44.1528 12.264C43.7448 12.264 43.3728 12.36 43.0368 12.552C42.7008 12.744 42.4328 13.024 42.2328 13.392C42.0328 13.76 41.9328 14.192 41.9328 14.688C41.9328 15.192 42.0328 15.632 42.2328 16.008C42.4328 16.376 42.7008 16.66 43.0368 16.86C43.3728 17.052 43.7448 17.148 44.1528 17.148C44.5608 17.148 44.9328 17.052 45.2688 16.86C45.6128 16.66 45.8848 16.376 46.0848 16.008C46.2848 15.632 46.3848 15.196 46.3848 14.7ZM50.6662 12.324V16.2C50.6662 16.52 50.7342 16.748 50.8702 16.884C51.0062 17.012 51.2422 17.076 51.5782 17.076H52.3822V18H51.3982C50.7902 18 50.3342 17.86 50.0302 17.58C49.7262 17.3 49.5742 16.84 49.5742 16.2V12.324H48.7222V11.424H49.5742V9.768H50.6662V11.424H52.3822V12.324H50.6662ZM54.2693 10.356C54.0613 10.356 53.8853 10.284 53.7413 10.14C53.5973 9.996 53.5253 9.82 53.5253 9.612C53.5253 9.404 53.5973 9.228 53.7413 9.084C53.8853 8.94 54.0613 8.868 54.2693 8.868C54.4693 8.868 54.6373 8.94 54.7733 9.084C54.9173 9.228 54.9893 9.404 54.9893 9.612C54.9893 9.82 54.9173 9.996 54.7733 10.14C54.6373 10.284 54.4693 10.356 54.2693 10.356ZM54.7973 11.424V18H53.7053V11.424H54.7973ZM59.8624 11.304C60.6624 11.304 61.3104 11.548 61.8064 12.036C62.3024 12.516 62.5504 13.212 62.5504 14.124V18H61.4704V14.28C61.4704 13.624 61.3064 13.124 60.9784 12.78C60.6504 12.428 60.2024 12.252 59.6344 12.252C59.0584 12.252 58.5984 12.432 58.2544 12.792C57.9184 13.152 57.7504 13.676 57.7504 14.364V18H56.6584V11.424H57.7504V12.36C57.9664 12.024 58.2584 11.764 58.6264 11.58C59.0024 11.396 59.4144 11.304 59.8624 11.304ZM67.0462 11.316C67.6142 11.316 68.1102 11.44 68.5342 11.688C68.9662 11.936 69.2862 12.248 69.4942 12.624V11.424H70.5982V18.144C70.5982 18.744 70.4702 19.276 70.2142 19.74C69.9582 20.212 69.5902 20.58 69.1102 20.844C68.6382 21.108 68.0862 21.24 67.4542 21.24C66.5902 21.24 65.8702 21.036 65.2942 20.628C64.7182 20.22 64.3782 19.664 64.2742 18.96H65.3542C65.4742 19.36 65.7222 19.68 66.0982 19.92C66.4742 20.168 66.9262 20.292 67.4542 20.292C68.0542 20.292 68.5422 20.104 68.9182 19.728C69.3022 19.352 69.4942 18.824 69.4942 18.144V16.764C69.2782 17.148 68.9582 17.468 68.5342 17.724C68.1102 17.98 67.6142 18.108 67.0462 18.108C66.4622 18.108 65.9302 17.964 65.4502 17.676C64.9782 17.388 64.6062 16.984 64.3342 16.464C64.0622 15.944 63.9262 15.352 63.9262 14.688C63.9262 14.016 64.0622 13.428 64.3342 12.924C64.6062 12.412 64.9782 12.016 65.4502 11.736C65.9302 11.456 66.4622 11.316 67.0462 11.316ZM69.4942 14.7C69.4942 14.204 69.3942 13.772 69.1942 13.404C68.9942 13.036 68.7222 12.756 68.3782 12.564C68.0422 12.364 67.6702 12.264 67.2622 12.264C66.8542 12.264 66.4822 12.36 66.1462 12.552C65.8102 12.744 65.5422 13.024 65.3422 13.392C65.1422 13.76 65.0422 14.192 65.0422 14.688C65.0422 15.192 65.1422 15.632 65.3422 16.008C65.5422 16.376 65.8102 16.66 66.1462 16.86C66.4822 17.052 66.8542 17.148 67.2622 17.148C67.6702 17.148 68.0422 17.052 68.3782 16.86C68.7222 16.66 68.9942 16.376 69.1942 16.008C69.3942 15.632 69.4942 15.196 69.4942 14.7Z" fill="black"/>
<circle cx="14" cy="14" r="14" fill="#FFC3DD"/>
<path d="M13.6816 5.94141C13.8099 5.68567 14.1893 5.68643 14.3174 5.94238L16.501 10.3076L16.6768 10.6592L17.0654 10.7148L21.9482 11.415C22.2493 11.4587 22.3391 11.8021 22.1455 11.9883L18.6133 15.3867L18.3262 15.6631L18.3945 16.0557L19.2285 20.8545C19.2723 21.1094 18.9904 21.3509 18.7129 21.207L14.3457 18.9414L14 18.7617L13.6543 18.9414L9.28711 21.207C9.00956 21.3509 8.7277 21.1094 8.77148 20.8545L9.60645 16.0557L9.6748 15.6631L9.3877 15.3867L5.85449 11.9873L5.79492 11.9111C5.68662 11.7203 5.78876 11.4528 6.05176 11.415L10.9336 10.7148L11.3223 10.6592L11.498 10.3076L13.6826 5.94238L13.6816 5.94141Z" stroke="black" stroke-width="1.5"/>
</svg>
