<svg width="93" height="28" viewBox="0 0 93 28" fill="none" xmlns="http://www.w3.org/2000/svg">
<rect width="93" height="28" rx="14" fill="white"/>
<path d="M38.328 18L36.336 14.58H35.016V18H33.924V9.636H36.624C37.256 9.636 37.788 9.744 38.22 9.96C38.66 10.176 38.988 10.468 39.204 10.836C39.42 11.204 39.528 11.624 39.528 12.096C39.528 12.672 39.36 13.18 39.024 13.62C38.696 14.06 38.2 14.352 37.536 14.496L39.636 18H38.328ZM35.016 13.704H36.624C37.216 13.704 37.66 13.56 37.956 13.272C38.252 12.976 38.4 12.584 38.4 12.096C38.4 11.6 38.252 11.216 37.956 10.944C37.668 10.672 37.224 10.536 36.624 10.536H35.016V13.704ZM47.2248 14.46C47.2248 14.668 47.2128 14.888 47.1888 15.12H41.9328C41.9728 15.768 42.1928 16.276 42.5928 16.644C43.0008 17.004 43.4928 17.184 44.0688 17.184C44.5408 17.184 44.9328 17.076 45.2448 16.86C45.5648 16.636 45.7888 16.34 45.9168 15.972H47.0928C46.9168 16.604 46.5648 17.12 46.0368 17.52C45.5088 17.912 44.8528 18.108 44.0688 18.108C43.4448 18.108 42.8848 17.968 42.3888 17.688C41.9008 17.408 41.5168 17.012 41.2368 16.5C40.9568 15.98 40.8168 15.38 40.8168 14.7C40.8168 14.02 40.9528 13.424 41.2248 12.912C41.4968 12.4 41.8768 12.008 42.3648 11.736C42.8608 11.456 43.4288 11.316 44.0688 11.316C44.6928 11.316 45.2448 11.452 45.7248 11.724C46.2048 11.996 46.5728 12.372 46.8288 12.852C47.0928 13.324 47.2248 13.86 47.2248 14.46ZM46.0968 14.232C46.0968 13.816 46.0048 13.46 45.8208 13.164C45.6368 12.86 45.3848 12.632 45.0648 12.48C44.7528 12.32 44.4048 12.24 44.0208 12.24C43.4688 12.24 42.9968 12.416 42.6048 12.768C42.2208 13.12 42.0008 13.608 41.9448 14.232H46.0968ZM49.7582 9.12V18H48.6662V9.12H49.7582ZM57.6193 14.46C57.6193 14.668 57.6073 14.888 57.5833 15.12H52.3273C52.3673 15.768 52.5873 16.276 52.9873 16.644C53.3953 17.004 53.8873 17.184 54.4633 17.184C54.9353 17.184 55.3273 17.076 55.6393 16.86C55.9593 16.636 56.1833 16.34 56.3113 15.972H57.4873C57.3113 16.604 56.9593 17.12 56.4313 17.52C55.9033 17.912 55.2473 18.108 54.4633 18.108C53.8393 18.108 53.2793 17.968 52.7833 17.688C52.2953 17.408 51.9113 17.012 51.6313 16.5C51.3513 15.98 51.2113 15.38 51.2113 14.7C51.2113 14.02 51.3473 13.424 51.6193 12.912C51.8913 12.4 52.2713 12.008 52.7593 11.736C53.2553 11.456 53.8233 11.316 54.4633 11.316C55.0873 11.316 55.6393 11.452 56.1193 11.724C56.5993 11.996 56.9673 12.372 57.2233 12.852C57.4873 13.324 57.6193 13.86 57.6193 14.46ZM56.4913 14.232C56.4913 13.816 56.3993 13.46 56.2153 13.164C56.0313 12.86 55.7793 12.632 55.4593 12.48C55.1473 12.32 54.7993 12.24 54.4153 12.24C53.8633 12.24 53.3913 12.416 52.9993 12.768C52.6153 13.12 52.3953 13.608 52.3393 14.232H56.4913ZM58.6527 14.688C58.6527 14.016 58.7887 13.428 59.0607 12.924C59.3327 12.412 59.7047 12.016 60.1767 11.736C60.6567 11.456 61.1887 11.316 61.7727 11.316C62.3487 11.316 62.8487 11.44 63.2727 11.688C63.6967 11.936 64.0127 12.248 64.2207 12.624V11.424H65.3247V18H64.2207V16.776C64.0047 17.16 63.6807 17.48 63.2487 17.736C62.8247 17.984 62.3287 18.108 61.7607 18.108C61.1767 18.108 60.6487 17.964 60.1767 17.676C59.7047 17.388 59.3327 16.984 59.0607 16.464C58.7887 15.944 58.6527 15.352 58.6527 14.688ZM64.2207 14.7C64.2207 14.204 64.1207 13.772 63.9207 13.404C63.7207 13.036 63.4487 12.756 63.1047 12.564C62.7687 12.364 62.3967 12.264 61.9887 12.264C61.5807 12.264 61.2087 12.36 60.8727 12.552C60.5367 12.744 60.2687 13.024 60.0687 13.392C59.8687 13.76 59.7687 14.192 59.7687 14.688C59.7687 15.192 59.8687 15.632 60.0687 16.008C60.2687 16.376 60.5367 16.66 60.8727 16.86C61.2087 17.052 61.5807 17.148 61.9887 17.148C62.3967 17.148 62.7687 17.052 63.1047 16.86C63.4487 16.66 63.7207 16.376 63.9207 16.008C64.1207 15.632 64.2207 15.196 64.2207 14.7ZM69.4981 18.108C68.9941 18.108 68.5421 18.024 68.1421 17.856C67.7421 17.68 67.4261 17.44 67.1941 17.136C66.9621 16.824 66.8341 16.468 66.8101 16.068H67.9381C67.9701 16.396 68.1221 16.664 68.3941 16.872C68.6741 17.08 69.0381 17.184 69.4861 17.184C69.9021 17.184 70.2301 17.092 70.4701 16.908C70.7101 16.724 70.8301 16.492 70.8301 16.212C70.8301 15.924 70.7021 15.712 70.4461 15.576C70.1901 15.432 69.7941 15.292 69.2581 15.156C68.7701 15.028 68.3701 14.9 68.0581 14.772C67.7541 14.636 67.4901 14.44 67.2661 14.184C67.0501 13.92 66.9421 13.576 66.9421 13.152C66.9421 12.816 67.0421 12.508 67.2421 12.228C67.4421 11.948 67.7261 11.728 68.0941 11.568C68.4621 11.4 68.8821 11.316 69.3541 11.316C70.0821 11.316 70.6701 11.5 71.1181 11.868C71.5661 12.236 71.8061 12.74 71.8381 13.38H70.7461C70.7221 13.036 70.5821 12.76 70.3261 12.552C70.0781 12.344 69.7421 12.24 69.3181 12.24C68.9261 12.24 68.6141 12.324 68.3821 12.492C68.1501 12.66 68.0341 12.88 68.0341 13.152C68.0341 13.368 68.1021 13.548 68.2381 13.692C68.3821 13.828 68.5581 13.94 68.7661 14.028C68.9821 14.108 69.2781 14.2 69.6541 14.304C70.1261 14.432 70.5101 14.56 70.8061 14.688C71.1021 14.808 71.3541 14.992 71.5621 15.24C71.7781 15.488 71.8901 15.812 71.8981 16.212C71.8981 16.572 71.7981 16.896 71.5981 17.184C71.3981 17.472 71.1141 17.7 70.7461 17.868C70.3861 18.028 69.9701 18.108 69.4981 18.108ZM79.4396 14.46C79.4396 14.668 79.4276 14.888 79.4036 15.12H74.1476C74.1876 15.768 74.4076 16.276 74.8076 16.644C75.2156 17.004 75.7076 17.184 76.2836 17.184C76.7556 17.184 77.1476 17.076 77.4596 16.86C77.7796 16.636 78.0036 16.34 78.1316 15.972H79.3076C79.1316 16.604 78.7796 17.12 78.2516 17.52C77.7236 17.912 77.0676 18.108 76.2836 18.108C75.6596 18.108 75.0996 17.968 74.6036 17.688C74.1156 17.408 73.7316 17.012 73.4516 16.5C73.1716 15.98 73.0316 15.38 73.0316 14.7C73.0316 14.02 73.1676 13.424 73.4396 12.912C73.7116 12.4 74.0916 12.008 74.5796 11.736C75.0756 11.456 75.6436 11.316 76.2836 11.316C76.9076 11.316 77.4596 11.452 77.9396 11.724C78.4196 11.996 78.7876 12.372 79.0436 12.852C79.3076 13.324 79.4396 13.86 79.4396 14.46ZM78.3116 14.232C78.3116 13.816 78.2196 13.46 78.0356 13.164C77.8516 12.86 77.5996 12.632 77.2796 12.48C76.9676 12.32 76.6196 12.24 76.2356 12.24C75.6836 12.24 75.2116 12.416 74.8196 12.768C74.4356 13.12 74.2156 13.608 74.1596 14.232H78.3116Z" fill="black"/>
<circle cx="14" cy="14" r="14" fill="#FFC3DD"/>
<path d="M17.75 15.5C17.9489 15.5 18.1397 15.421 18.2803 15.2803C18.421 15.1397 18.5 14.9489 18.5 14.75C18.5 14.5511 18.421 14.3603 18.2803 14.2197C18.1397 14.079 17.9489 14 17.75 14C17.5511 14 17.3603 14.079 17.2197 14.2197C17.079 14.3603 17 14.5511 17 14.75C17 14.9489 17.079 15.1397 17.2197 15.2803C17.3603 15.421 17.5511 15.5 17.75 15.5ZM17.75 18.5C17.9489 18.5 18.1397 18.421 18.2803 18.2803C18.421 18.1397 18.5 17.9489 18.5 17.75C18.5 17.5511 18.421 17.3603 18.2803 17.2197C18.1397 17.079 17.9489 17 17.75 17C17.5511 17 17.3603 17.079 17.2197 17.2197C17.079 17.3603 17 17.5511 17 17.75C17 17.9489 17.079 18.1397 17.2197 18.2803C17.3603 18.421 17.5511 18.5 17.75 18.5ZM14.75 14.75C14.75 14.9489 14.671 15.1397 14.5303 15.2803C14.3897 15.421 14.1989 15.5 14 15.5C13.8011 15.5 13.6103 15.421 13.4697 15.2803C13.329 15.1397 13.25 14.9489 13.25 14.75C13.25 14.5511 13.329 14.3603 13.4697 14.2197C13.6103 14.079 13.8011 14 14 14C14.1989 14 14.3897 14.079 14.5303 14.2197C14.671 14.3603 14.75 14.5511 14.75 14.75ZM14.75 17.75C14.75 17.9489 14.671 18.1397 14.5303 18.2803C14.3897 18.421 14.1989 18.5 14 18.5C13.8011 18.5 13.6103 18.421 13.4697 18.2803C13.329 18.1397 13.25 17.9489 13.25 17.75C13.25 17.5511 13.329 17.3603 13.4697 17.2197C13.6103 17.079 13.8011 17 14 17C14.1989 17 14.3897 17.079 14.5303 17.2197C14.671 17.3603 14.75 17.5511 14.75 17.75ZM10.25 15.5C10.4489 15.5 10.6397 15.421 10.7803 15.2803C10.921 15.1397 11 14.9489 11 14.75C11 14.5511 10.921 14.3603 10.7803 14.2197C10.6397 14.079 10.4489 14 10.25 14C10.0511 14 9.86032 14.079 9.71967 14.2197C9.57902 14.3603 9.5 14.5511 9.5 14.75C9.5 14.9489 9.57902 15.1397 9.71967 15.2803C9.86032 15.421 10.0511 15.5 10.25 15.5ZM10.25 18.5C10.4489 18.5 10.6397 18.421 10.7803 18.2803C10.921 18.1397 11 17.9489 11 17.75C11 17.5511 10.921 17.3603 10.7803 17.2197C10.6397 17.079 10.4489 17 10.25 17C10.0511 17 9.86032 17.079 9.71967 17.2197C9.57902 17.3603 9.5 17.5511 9.5 17.75C9.5 17.9489 9.57902 18.1397 9.71967 18.2803C9.86032 18.421 10.0511 18.5 10.25 18.5Z" fill="black"/>
<path fill-rule="evenodd" clip-rule="evenodd" d="M10.25 6.3125C10.3992 6.3125 10.5422 6.37176 10.6477 6.47725C10.7532 6.58274 10.8125 6.72582 10.8125 6.875V7.44725C11.309 7.4375 11.8557 7.4375 12.4572 7.4375H15.542C16.1442 7.4375 16.691 7.4375 17.1875 7.44725V6.875C17.1875 6.72582 17.2467 6.58274 17.3522 6.47725C17.4577 6.37176 17.6008 6.3125 17.75 6.3125C17.8992 6.3125 18.0422 6.37176 18.1477 6.47725C18.2532 6.58274 18.3125 6.72582 18.3125 6.875V7.49525C18.5075 7.51025 18.6922 7.52925 18.8667 7.55225C19.7457 7.67075 20.4575 7.91975 21.0192 8.48075C21.5802 9.0425 21.8292 9.75425 21.9477 10.6333C22.0625 11.4883 22.0625 12.5795 22.0625 13.958V15.542C22.0625 16.9205 22.0625 18.0125 21.9477 18.8668C21.8292 19.7458 21.5802 20.4575 21.0192 21.0192C20.4575 21.5802 19.7457 21.8293 18.8667 21.9478C18.0117 22.0625 16.9205 22.0625 15.542 22.0625H12.4587C11.0802 22.0625 9.98823 22.0625 9.13398 21.9478C8.25498 21.8293 7.54323 21.5802 6.98148 21.0192C6.42048 20.4575 6.17148 19.7458 6.05298 18.8668C5.93823 18.0118 5.93823 16.9205 5.93823 15.542V13.958C5.93823 12.5795 5.93823 11.4875 6.05298 10.6333C6.17148 9.75425 6.42048 9.0425 6.98148 8.48075C7.54323 7.91975 8.25498 7.67075 9.13398 7.55225C9.30898 7.52925 9.49373 7.51025 9.68823 7.49525V6.875C9.68823 6.72595 9.74739 6.58299 9.85272 6.47752C9.95805 6.37205 10.1009 6.3127 10.25 6.3125ZM9.28248 8.6675C8.52873 8.76875 8.09373 8.95925 7.77648 9.2765C7.45923 9.59375 7.26873 10.0288 7.16748 10.7825C7.15048 10.91 7.13598 11.0447 7.12398 11.1867H20.876C20.864 11.0447 20.8495 10.9098 20.8325 10.7818C20.7312 10.028 20.5407 9.593 20.2235 9.27575C19.9062 8.9585 19.4712 8.768 18.7167 8.66675C17.9465 8.56325 16.9302 8.56175 15.5 8.56175H12.5C11.0697 8.56175 10.0542 8.564 9.28248 8.6675ZM7.06248 14C7.06248 13.3595 7.06248 12.8022 7.07223 12.3125H20.9277C20.9375 12.8022 20.9375 13.3595 20.9375 14V15.5C20.9375 16.9302 20.936 17.9465 20.8325 18.7175C20.7312 19.4713 20.5407 19.9063 20.2235 20.2235C19.9062 20.5408 19.4712 20.7313 18.7167 20.8325C17.9465 20.936 16.9302 20.9375 15.5 20.9375H12.5C11.0697 20.9375 10.0542 20.936 9.28248 20.8325C8.52873 20.7313 8.09373 20.5408 7.77648 20.2235C7.45923 19.9063 7.26873 19.4712 7.16748 18.7167C7.06398 17.9465 7.06248 16.9302 7.06248 15.5V14Z" fill="black"/>
</svg>
